<svg width="85" height="51" viewBox="0 0 85 51" fill="none" xmlns="http://www.w3.org/2000/svg">
<path d="M30.2756 13.8182H37.1023L44.3125 31.4091H44.6193L51.8295 13.8182H58.6562V40H53.2869V22.9588H53.0696L46.294 39.8722H42.6378L35.8622 22.8949H35.6449V40H30.2756V13.8182ZM63.217 40V13.8182H73.6999C75.6261 13.8182 77.2326 14.1037 78.5195 14.6747C79.8065 15.2457 80.7738 16.0384 81.4215 17.0526C82.0692 18.0582 82.3931 19.2173 82.3931 20.5298C82.3931 21.5526 82.1886 22.4517 81.7795 23.2273C81.3704 23.9943 80.8079 24.625 80.092 25.1193C79.3846 25.6051 78.5749 25.9503 77.663 26.1548V26.4105C78.6602 26.4531 79.5934 26.7344 80.4627 27.2543C81.3406 27.7741 82.0522 28.5028 82.5977 29.4403C83.1431 30.3693 83.4158 31.4773 83.4158 32.7642C83.4158 34.1534 83.0707 35.3935 82.3803 36.4844C81.6985 37.5668 80.6886 38.4233 79.3505 39.054C78.0124 39.6847 76.3633 40 74.4031 40H63.217ZM68.7525 35.4744H73.2653C74.8079 35.4744 75.9329 35.1804 76.6403 34.5923C77.3477 33.9957 77.7014 33.2031 77.7014 32.2145C77.7014 31.4901 77.5266 30.8509 77.1772 30.2969C76.8278 29.7429 76.3292 29.3082 75.6815 28.9929C75.0423 28.6776 74.2795 28.5199 73.3931 28.5199H68.7525V35.4744ZM68.7525 24.7741H72.8562C73.6147 24.7741 74.288 24.642 74.8761 24.3778C75.4727 24.1051 75.9414 23.7216 76.2823 23.2273C76.6317 22.733 76.8065 22.1406 76.8065 21.4503C76.8065 20.5043 76.4698 19.7415 75.7965 19.1619C75.1317 18.5824 74.1857 18.2926 72.9585 18.2926H68.7525V24.7741Z" fill="black"/>
<rect x="10.4106" y="0.573589" width="4.88699" height="39.5974" rx="2.44349" transform="rotate(15.2431 10.4106 0.573589)" fill="black"/>
<rect x="15.636" y="11" width="4.88699" height="39.5974" rx="2.44349" transform="rotate(15.2431 15.636 11)" fill="black"/>
</svg>
